<?xml version="1.0" encoding="utf-8"?>
<!-- Generator: Adobe Illustrator 21.0.2, SVG Export Plug-In . SVG Version: 6.00 Build 0)  -->
<svg version="1.1" id="Layer_1" xmlns="http://www.w3.org/2000/svg" xmlns:xlink="http://www.w3.org/1999/xlink" x="0px" y="0px"
	 viewBox="0 0 1024 1024" style="enable-background:new 0 0 1024 1024;" xml:space="preserve">
<style type="text/css">
	.st1{opacity:0.4;}
	.st2{fill:none;stroke:#010101;stroke-width:60;stroke-linecap:round;stroke-linejoin:round;stroke-miterlimit:10;}
	.st3{fill:#039A49;}
	.st4{fill:#E52729;}
</style>
<g class="st0">
	<g class="st1">
		<path class="st2" d="M512,512"/>
	</g>
	<g>
		<path class="st3" d="M903.8,1024H120.2c-33.5,0-65.8-14.2-88.5-38.8C9,960.5-2.4,927.2,0.4,893.8l52-617
			c1.4-16.5,15.9-28.8,32.4-27.4c16.5,1.4,28.8,15.9,27.4,32.4l-52,617c-1.4,17,4.1,33.2,15.7,45.8c11.5,12.5,27.3,19.4,44.3,19.4
			h783.7c17,0,32.8-6.9,44.3-19.4c11.5-12.5,17.1-28.8,15.7-45.8l-59.3-704.4c-1-12.2-5.7-23.6-13.4-33.1L826,82
			c-11.5-14-28.4-22-46.5-22H244.5c-18.1,0-35,8-46.5,22l-42.6,52h639c16.6,0,30,13.4,30,30s-13.4,30-30,30H112.3
			c-15.5,0-29.2-8.7-35.8-22.7c-6.6-14-4.6-30.1,5.2-42l70-85.3C174.5,16,208.4,0,244.5,0h534.9c36.1,0,70,16,92.9,44l65,79.3
			c15.5,18.9,24.8,41.8,26.8,66.1l59.3,704.4c2.8,33.4-8.6,66.7-31.3,91.4C969.6,1009.8,937.4,1024,903.8,1024z"/>
	</g>
	<g>
		<path class="st3" d="M512,572.8c-68.4,0-132.7-26.6-181.1-75c-48.4-48.4-75-112.7-75-181.1c0-16.6,13.4-30,30-30s30,13.4,30,30
			c0,108.1,88,196.1,196.1,196.1c108.1,0,196.1-88,196.1-196.1c0-16.6,13.4-30,30-30s30,13.4,30,30c0,68.4-26.6,132.7-75,181.1
			C644.7,546.2,580.4,572.8,512,572.8z"/>
	</g>
	<g>
		<circle class="st4" cx="196.2" cy="644.4" r="35"/>
	</g>
	<g>
		<circle class="st4" cx="196.2" cy="749.4" r="35"/>
	</g>
	<g>
		<circle class="st4" cx="196.2" cy="854.4" r="35"/>
	</g>
</g>
</svg>
