<?xml version="1.0" encoding="utf-8"?>
<!-- Generator: Adobe Illustrator 27.0.0, SVG Export Plug-In . SVG Version: 6.00 Build 0)  -->
<svg version="1.1" id="Layer_1" xmlns="http://www.w3.org/2000/svg" xmlns:xlink="http://www.w3.org/1999/xlink" x="0px" y="0px"
	 viewBox="0 0 1024 1024" style="enable-background:new 0 0 1024 1024;" xml:space="preserve">
<style type="text/css">
	.st0{fill:#226DB4;}
	.st1{fill:#FFFFFF;}
	.st2{fill:#089949;}
	.st3{fill:#E42527;}
</style>
<g>
	<g>
		<path class="st2" d="M861.6,844.2c-4.2,0-8.3-0.3-12.6-0.9l-93.5-13.1c-16.4-2.3-27.8-17.5-25.5-33.9
			c2.3-16.4,17.5-27.8,33.9-25.5l93.5,13.1c16.4,2.3,31.5-9.1,33.8-25.5l72.5-515.8c1.1-7.9-0.9-15.8-5.7-22.2
			c-4.8-6.4-11.8-10.5-19.7-11.6l-474.6-66.7c-16.3-2.3-31.5,9.1-33.8,25.5l-8.8,62.3c-2.3,16.4-17.5,27.8-33.9,25.5
			c-16.4-2.3-27.8-17.5-25.5-33.9l8.8-62.3c6.9-49.1,52.5-83.4,101.6-76.5l474.6,66.7c23.8,3.3,44.9,15.7,59.3,34.9
			c14.5,19.2,20.6,42.9,17.2,66.6l-72.5,515.8C944.3,811.7,905.7,844.2,861.6,844.2z"/>
	</g>
	<g>
		<path class="st3" d="M111.4,942.1c-14.7,0-27.6-10.8-29.7-25.8L0.9,341.2c-3.3-23.8,2.8-47.5,17.2-66.6
			c14.5-19.2,35.5-31.6,59.3-34.9L552,172.9c49.1-6.9,94.7,27.4,101.6,76.5l67.4,479.2c2.3,16.4-9.1,31.6-25.5,33.9
			c-16.4,2.3-31.6-9.1-33.9-25.5l-67.4-479.2c-2.3-16.3-17.5-27.8-33.8-25.5L85.8,299c-7.9,1.1-14.9,5.2-19.7,11.6
			c-4.8,6.4-6.8,14.3-5.7,22.2l80.8,575.1c2.3,16.4-9.1,31.6-25.5,33.9C114.2,942,112.8,942.1,111.4,942.1z"/>
	</g>
	<path class="st0" d="M898.3,373.4c0-49.6-40.3-89.9-89.9-89.9s-89.9,40.3-89.9,89.9c0,30.9,15.7,58.3,39.6,74.5l-66.2,254.7
		c-16.6,1.5-31.9,7.5-44.7,16.7l-214.3-144c1.8-7.2,2.8-14.7,2.8-22.4c0-49.6-40.3-89.9-89.9-89.9s-89.9,40.3-89.9,89.9
		c0,20.5,6.9,39.4,18.5,54.6l-188,288.3c-9.1,13.9-5.1,32.5,8.7,41.5c5.1,3.3,10.7,4.9,16.4,4.9c9.8,0,19.4-4.8,25.2-13.6l188-288.3
		c6.8,1.6,13.9,2.5,21.2,2.5c20.1,0,38.6-6.6,53.6-17.8L613,768.6c-2,7.5-3.1,15.4-3.1,23.5c0,49.6,40.3,89.9,89.9,89.9
		s89.9-40.3,89.9-89.9c0-31.1-15.8-58.5-39.8-74.6l66.1-254.5C862,459,898.3,420.3,898.3,373.4z M808.3,343.4
		c16.5,0,29.9,13.4,29.9,29.9s-13.4,29.9-29.9,29.9s-29.9-13.4-29.9-29.9S791.8,343.4,808.3,343.4z M315.8,552.8
		c0-16.5,13.4-29.9,29.9-29.9s29.9,13.4,29.9,29.9c0,5.6-1.5,10.8-4.2,15.2c-0.3,0.5-0.7,0.9-1,1.4c-0.3,0.5-0.6,1-0.9,1.4
		c-5.5,7.2-14.1,11.9-23.8,11.9C329.2,582.8,315.8,569.4,315.8,552.8z M699.8,822c-16.5,0-29.9-13.4-29.9-29.9
		c0-16.5,13.4-29.9,29.9-29.9s29.9,13.4,29.9,29.9C729.8,808.6,716.3,822,699.8,822z"/>
</g>
</svg>
