<?xml version="1.0" encoding="utf-8"?>
<!-- Generator: Adobe Illustrator 24.3.0, SVG Export Plug-In . SVG Version: 6.00 Build 0)  -->
<svg version="1.1" id="Layer_1" xmlns="http://www.w3.org/2000/svg" xmlns:xlink="http://www.w3.org/1999/xlink" x="0px" y="0px"
	 viewBox="0 0 1024 1024" style="enable-background:new 0 0 1024 1024;" xml:space="preserve">
<style type="text/css">
	.st0{fill:#226DB4;}
	.st1{fill:#009849;}
	.st2{fill:#FFFFFF;}
	.st3{fill:#089949;}
	.st4{fill:#E42528;}
	.st5{fill:#F7B11A;}
</style>
<g>
	<g>
		<path class="st3" d="M210,783.91H60c-33.08,0-60-26.92-60-60V120.4c0-33.08,26.92-60,60-60h724c33.08,0,60,26.92,60,60V270.1
			c0,16.57-13.43,30-30,30s-30-13.43-30-30V120.4H60v603.5h150c16.57,0,30,13.43,30,30S226.57,783.91,210,783.91z"/>
	</g>
	<g>
		<circle class="st4" cx="325" cy="398.61" r="25"/>
	</g>
	<g>
		<circle class="st5" cx="400" cy="398.61" r="25"/>
	</g>
	<g>
		<circle class="st1" cx="475" cy="398.61" r="25"/>
	</g>
	<g>
		<path class="st0" d="M974,963.59H574.15c-13.33,0-25.87-5.18-35.3-14.59l-66.74-66.55c-16.55-16.5-19.4-42.76-6.77-62.43
			l0.91-1.42c11.74-18.28,15.12-41.09,9.28-62.58l-0.29-1.09c-5.68-21.25-20.03-39.13-39.36-49.03l-1.5-0.77
			c-20.81-10.66-31.54-34.79-25.52-57.37l22.09-82.94c6.02-22.59,27.32-38.16,50.68-37.07l1.67,0.08
			c21.71,1.03,43.05-7.34,58.56-22.96l0.77-0.77c15.78-15.75,24.19-37.22,23.1-58.93l-0.08-1.68
			c-1.17-23.35,14.36-44.71,36.92-50.79l82.88-22.34c22.57-6.09,46.73,4.58,57.45,25.35l0.8,1.55
			c9.95,19.29,27.95,33.61,49.36,39.27l1.04,0.28c21.36,5.73,44.09,2.27,62.33-9.52l15.01-9.7c13.92-8.99,32.49-5,41.48,8.91
			c8.99,13.92,5,32.49-8.91,41.48l-15.01,9.7c-32.47,20.99-72.74,27.21-110.49,17.07l-0.3-0.08c-0.05-0.01-0.09-0.02-0.14-0.04
			l-0.31-0.08c-35.74-9.44-66.14-32.67-84.34-64.19l-67.6,18.22c0.09,36.4-14.57,71.8-40.78,97.97l-0.63,0.63
			c-25.9,26.08-61.15,40.73-97.51,40.74l-18.02,67.65c31.55,18.1,54.83,48.34,64.34,83.89l0.23,0.84
			c9.72,35.74,4.83,73.74-13.36,105.27l58.21,58.04H964V300.1H240v603.5h179.35c16.57,0,30,13.43,30,30s-13.43,30-30,30H230
			c-27.57,0-50-22.43-50-50V290.1c0-27.57,22.43-50,50-50h744c27.57,0,50,22.43,50,50v623.5C1024,941.17,1001.57,963.59,974,963.59z
			"/>
	</g>
	<g>
		<path class="st0" d="M726.58,805.73c-10,0-20.16-1.29-30.28-3.98c-62.73-16.71-100.17-81.34-83.46-144.06
			c16.71-62.73,81.33-100.17,144.06-83.46s100.17,81.34,83.46,144.06v0C826.35,770.91,778.62,805.73,726.58,805.73z M726.62,630.26
			c-25.52,0-48.92,17.08-55.79,42.88c-8.19,30.76,10.17,62.45,40.92,70.64c30.76,8.2,62.45-10.16,70.64-40.92v0
			c8.19-30.76-10.17-62.45-40.92-70.64C736.5,630.89,731.52,630.26,726.62,630.26z M811.37,710.57L811.37,710.57L811.37,710.57z"/>
	</g>
</g>
</svg>
