<?xml version="1.0" encoding="utf-8"?>
<!-- Generator: Adobe Illustrator 23.0.4, SVG Export Plug-In . SVG Version: 6.00 Build 0)  -->
<svg version="1.1" id="Layer_1" xmlns="http://www.w3.org/2000/svg" xmlns:xlink="http://www.w3.org/1999/xlink" x="0px" y="0px"
	 viewBox="0 0 1024 1024" style="enable-background:new 0 0 1024 1024;" xml:space="preserve">
<style type="text/css">
	.st1{fill:#226DB4;}
	.st2{fill:#E42527;}
</style>
<g>
	<g class="st0">
		<path class="st1" d="M150.2,748.6c-16.6,0-30-13.4-30-30V129.4c0-71.6,58.3-129.9,129.9-129.9h523.4
			c71.6,0,129.9,58.3,129.9,129.9v220c0,16.6-13.4,30-30,30s-30-13.4-30-30v-220c0-38.5-31.3-69.9-69.9-69.9H250.1
			c-38.5,0-69.9,31.3-69.9,69.9v589.2C180.2,735.2,166.8,748.6,150.2,748.6z"/>
	</g>
	<g class="st0">
		<path class="st1" d="M773.5,902.5H626.6c-16.6,0-30-13.4-30-30s13.4-30,30-30h146.9c38.5,0,69.9-31.3,69.9-69.9V538.3
			c0-16.6,13.4-30,30-30s30,13.4,30,30v234.3C903.4,844.2,845.1,902.5,773.5,902.5z"/>
	</g>
	<g class="st0">
		<path class="st1" d="M549.7,239.4H330c-16.6,0-30-13.4-30-30s13.4-30,30-30h219.7c16.6,0,30,13.4,30,30S566.3,239.4,549.7,239.4z"
			/>
	</g>
	<g class="st0">
		<path class="st1" d="M489.8,359.1H330c-16.6,0-30-13.4-30-30s13.4-30,30-30h159.8c16.6,0,30,13.4,30,30S506.3,359.1,489.8,359.1z"
			/>
	</g>
	<g class="st0">
		<path class="st2" d="M268.8,1022.5c-18.5,0-36-8.5-47.4-23.3C116.9,863.9,14,784.9,13,784.2c-7.4-5.6-11.8-14.4-11.8-23.7
			c-0.1-9.3,4.2-18.1,11.5-23.8c1.9-1.5,47.8-37,120.4-46.5c42.4-5.5,85.5-1.3,127.9,12.7c42.9,14.1,85.1,38.2,125.9,71.8
			c88.4-134.5,203.6-297.9,294.5-390c49.5-50.2,103.5-74,160.6-70.9c35.5,2,70.7,14.4,104.7,37c32.5,21.6,55.9,47.1,69.8,64.7
			c5.8,7.4,7.8,17,5.5,26.1c-2.3,9.1-8.8,16.5-17.5,20.1c-67.2,28.1-220.6,219.7-400.4,500.2c-24,37.4-64.9,59.8-109.4,59.8h-77.6
			c-16.6,0-30-13.4-30-30s13.4-30,30-30h77.6c23.9,0,45.9-12,58.8-32.2c39.2-61.1,117-179.7,198.1-287.8
			C833.1,533.4,897.2,462.5,946.2,427c-47.4-46-93.1-52.4-107.5-53.2c-39.1-2.2-77.7,15.7-114.6,53.1
			C583.6,569.3,380.6,891.4,320.5,993c-10.1,17.1-28,28.1-47.9,29.3C271.3,1022.4,270.1,1022.5,268.8,1022.5z M84,765.1
			c40.8,35.5,112.1,103,184.9,197.3c17.8-30,47.8-79,85.1-137c-36.6-31.1-74.1-53.1-111.7-65.5c-33.8-11.2-67.9-14.6-101.4-10.2
			C118.2,752.7,98.9,758.8,84,765.1z"/>
	</g>
</g>
</svg>
