<?xml version="1.0" encoding="utf-8"?>
<!-- Generator: Adobe Illustrator 21.0.2, SVG Export Plug-In . SVG Version: 6.00 Build 0)  -->
<svg version="1.1" id="Layer_1" xmlns="http://www.w3.org/2000/svg" xmlns:xlink="http://www.w3.org/1999/xlink" x="0px" y="0px"
	 viewBox="0 0 1024 1024" style="enable-background:new 0 0 1024 1024;" xml:space="preserve">
<style type="text/css">
	.st1{fill:#216DB3;}
	.st2{fill:#E32327;}
</style>
<g>
	<g class="st0">
		<path class="st1" d="M240.6,516c-3.4,0-6.9-0.6-10.3-1.8l-120.2-43.7c-15.6-5.7-23.6-22.9-17.9-38.5c5.7-15.6,22.9-23.6,38.5-17.9
			l120.2,43.7c15.6,5.7,23.6,22.9,17.9,38.5C264.3,508.4,252.8,516,240.6,516z"/>
	</g>
	<g class="st0">
		<path class="st1" d="M951.1,774.6c-3.4,0-6.9-0.6-10.3-1.8L820.7,729c-15.6-5.7-23.6-22.9-17.9-38.5s22.9-23.6,38.5-17.9
			l120.2,43.7c15.6,5.7,23.6,22.9,17.9,38.5C974.8,767,963.3,774.6,951.1,774.6z"/>
	</g>
	<g class="st0">
		<path class="st1" d="M820.4,490.7c-11.3,0-22.1-6.4-27.2-17.3c-7-15-0.5-32.9,14.5-39.9l115.9-54c15-7,32.9-0.5,39.9,14.5
			c7,15,0.5,32.9-14.5,39.9l-115.9,54C829,489.8,824.7,490.7,820.4,490.7z"/>
	</g>
	<g class="st0">
		<path class="st1" d="M403,338.8c-11.3,0-22.1-6.4-27.2-17.3l-54-115.9c-7-15-0.5-32.9,14.5-39.9c15-7,32.9-0.5,39.9,14.5l54,115.9
			c7,15,0.5,32.9-14.5,39.9C411.6,337.8,407.3,338.8,403,338.8z"/>
	</g>
	<g class="st0">
		<path class="st1" d="M634,147.5c-14.3,0-26.9-10.2-29.5-24.8L589,35.2c-2.9-16.3,8-31.9,24.3-34.8c16.3-2.9,31.9,8,34.8,24.3
			l15.4,87.5c2.9,16.3-8,31.9-24.3,34.8C637.4,147.4,635.7,147.5,634,147.5z"/>
	</g>
	<g class="st0">
		<path class="st1" d="M766.4,195.7c-8.6,0-17.1-3.6-23-10.7c-10.7-12.7-9-31.6,3.7-42.3l68.1-57.1c12.7-10.6,31.6-9,42.3,3.7
			c10.7,12.7,9,31.6-3.7,42.3l-68.1,57.1C780.1,193.4,773.2,195.7,766.4,195.7z"/>
	</g>
	<g class="st0">
		<path class="st1" d="M722.6,1024c-11.3,0-22.1-6.4-27.2-17.3l-54-115.9c-7-15-0.5-32.9,14.5-39.9c15-7,32.9-0.5,39.9,14.5
			l54,115.9c7,15,0.5,32.9-14.5,39.9C731.1,1023.1,726.8,1024,722.6,1024z"/>
	</g>
	<g class="st0">
		<path class="st2" d="M754.5,397.9c-8.2,0-16.3-3.3-22.2-9.8c-11.1-12.3-10.3-31.2,2-42.4c13.8-12.6,24.1-28,30.6-45.7
			c10.5-28.9,9.1-60.1-3.8-87.9c-13-27.8-36-49-64.9-59.5c-28.9-10.5-60.1-9.1-87.9,3.8c-27.8,13-49,36-59.5,64.9
			c-6.5,17.7-8.5,36.1-5.9,54.6c2.2,16.4-9.3,31.5-25.7,33.8c-16.4,2.2-31.5-9.3-33.8-25.7c-3.8-27.9-0.7-56.6,9-83.2
			c16-43.9,48.1-79,90.5-98.7c42.4-19.8,89.9-21.8,133.8-5.8c43.9,16,79,48.1,98.7,90.5c19.8,42.4,21.8,89.9,5.8,133.8
			c-9.7,26.6-25.8,50.6-46.6,69.5C769,395.3,761.7,397.9,754.5,397.9z"/>
	</g>
	<g class="st0">
		<path class="st2" d="M535.6,937.6c-40,0-79.4-7-117.5-20.8c-43.8-15.9-83.2-40-117-71.6c-12.1-11.3-12.8-30.3-1.5-42.4
			c11.3-12.1,30.3-12.8,42.4-1.5c27.9,26,60.4,45.9,96.6,59.1c71.3,26,148.5,22.6,217.2-9.5c68.8-32.1,120.9-89,146.9-160.3
			s22.6-148.5-9.5-217.2c-32.1-68.8-89-120.9-160.3-146.9c-71.3-26-148.5-22.6-217.2,9.5c-68.8,32.1-120.9,89-146.9,160.3
			c-26,71.3-22.6,148.5,9.5,217.2c7,15,0.5,32.9-14.5,39.9c-15,7-32.9,0.5-39.9-14.5c-18.9-40.5-29.6-83.6-31.9-128
			c-2.4-46,4.5-91.5,20.4-135.1c15.9-43.6,39.9-82.9,71.2-116.6c30.3-32.6,66.2-58.7,106.7-77.6c40.5-18.9,83.6-29.6,128-31.9
			c46-2.4,91.5,4.5,135.1,20.4c43.6,15.9,82.9,39.9,116.6,71.2c32.6,30.3,58.7,66.2,77.6,106.7c18.9,40.5,29.6,83.6,31.9,128
			c2.4,46-4.5,91.5-20.4,135.1c-15.9,43.6-39.9,82.9-71.2,116.6c-30.3,32.6-66.2,58.7-106.7,77.6c-40.5,18.9-83.6,29.6-128,31.9
			C547.3,937.5,541.4,937.6,535.6,937.6z"/>
	</g>
	<g class="st0">
		<path class="st2" d="M72.9,839.5c-11.3,0-22.1-6.4-27.2-17.3c-7-15-0.5-32.9,14.5-39.9L238.4,699c15-7,32.9-0.5,39.9,14.5
			c7,15,0.5,32.9-14.5,39.9L85.6,836.7C81.5,838.6,77.2,839.5,72.9,839.5z"/>
	</g>
</g>
</svg>
