<svg id="Component_4_1" data-name="Component 4 – 1" xmlns="http://www.w3.org/2000/svg" width="37" height="933" viewBox="0 0 37 933">
  <g id="Ellipse_65" data-name="Ellipse 65" transform="translate(0 77)" fill="none" stroke="#004e87" stroke-width="3">
    <circle cx="18.5" cy="18.5" r="18.5" stroke="none"/>
    <circle cx="18.5" cy="18.5" r="17" fill="none"/>
  </g>
  <g id="Ellipse_66" data-name="Ellipse 66" transform="translate(0 77)" fill="none" stroke="#004e87" stroke-width="3">
    <circle cx="18.5" cy="18.5" r="18.5" stroke="none"/>
    <circle cx="18.5" cy="18.5" r="17" fill="none"/>
  </g>
  <g id="Ellipse_67" data-name="Ellipse 67" transform="translate(0 260)" fill="none" stroke="#004e87" stroke-width="3">
    <circle cx="18.5" cy="18.5" r="18.5" stroke="none"/>
    <circle cx="18.5" cy="18.5" r="17" fill="none"/>
  </g>
  <g id="Ellipse_68" data-name="Ellipse 68" transform="translate(0 439)" fill="none" stroke="#004e87" stroke-width="3">
    <circle cx="18.5" cy="18.5" r="18.5" stroke="none"/>
    <circle cx="18.5" cy="18.5" r="17" fill="none"/>
  </g>
  <g id="Ellipse_69" data-name="Ellipse 69" transform="translate(0 622)" fill="none" stroke="#004e87" stroke-width="3">
    <circle cx="18.5" cy="18.5" r="18.5" stroke="none"/>
    <circle cx="18.5" cy="18.5" r="17" fill="none"/>
  </g>
  <g id="Ellipse_70" data-name="Ellipse 70" transform="translate(0 819)" fill="none" stroke="#004e87" stroke-width="3">
    <circle cx="18.5" cy="18.5" r="18.5" stroke="none"/>
    <circle cx="18.5" cy="18.5" r="17" fill="none"/>
  </g>
  <line id="Line_39" data-name="Line 39" y2="117" transform="translate(18.5 126.5)" fill="none" stroke="#004e87" stroke-width="2" stroke-dasharray="8"/>
  <line id="Line_40" data-name="Line 40" y2="117" transform="translate(18.5 309.5)" fill="none" stroke="#004e87" stroke-width="2" stroke-dasharray="8"/>
  <line id="Line_41" data-name="Line 41" y2="117" transform="translate(18.5 489.5)" fill="none" stroke="#004e87" stroke-width="2" stroke-dasharray="8"/>
  <line id="Line_42" data-name="Line 42" y2="117" transform="translate(18.5 679.5)" fill="none" stroke="#004e87" stroke-width="2" stroke-dasharray="8"/>
  <line id="Line_43" data-name="Line 43" y2="57" transform="translate(18.5 862.5)" fill="none" stroke="#004e87" stroke-width="2" stroke-dasharray="8"/>
  <line id="Line_44" data-name="Line 44" y2="52.5" transform="translate(18.5 17.5)" fill="none" stroke="#004e87" stroke-width="2" stroke-dasharray="8"/>
  <path id="Polygon_2" data-name="Polygon 2" d="M6.5,0,13,11H0Z" transform="translate(12)" fill="#004e87"/>
  <path id="Polygon_3" data-name="Polygon 3" d="M6.5,0,13,11H0Z" transform="translate(25 933) rotate(180)" fill="#004e87"/>
</svg>
