<svg id="Layer_1" data-name="Layer 1" xmlns="http://www.w3.org/2000/svg" viewBox="0 0 1024 1024"><defs><style>.cls-1{fill:#226db4;}</style></defs><title>BTW</title><path class="cls-1" d="M512.39,366.77A123.06,123.06,0,1,1,635.45,243.71,123.19,123.19,0,0,1,512.39,366.77Zm0-186.12a63.06,63.06,0,1,0,63.06,63.06A63.13,63.13,0,0,0,512.39,180.65Z"/><path class="cls-1" d="M846.24,1023.83H603.53a30,30,0,0,1,0-60H846.24a53.06,53.06,0,0,0,53-53V113.65a53.06,53.06,0,0,0-53-53h-668a53.06,53.06,0,0,0-53,53V742.2a45.14,45.14,0,0,0,18.54,36.4L383.83,953.1a52.83,52.83,0,0,0,62.4-.05L714,757.73a45.13,45.13,0,0,0,18.47-36.35V531.65a45,45,0,0,0-45-45H337.48a45,45,0,0,0-45,45v147.7L414.35,768,637,605.57A30,30,0,1,1,672.31,654L443.83,820.72a49.85,49.85,0,0,1-58.87,0L253.08,724.89a50.16,50.16,0,0,1-20.6-40.44V531.65a105.12,105.12,0,0,1,105-105H687.42a105.12,105.12,0,0,1,105,105V721.38a105.3,105.3,0,0,1-43.11,84.82L481.59,1001.52a112.66,112.66,0,0,1-133,.11l-240-174.5A105.3,105.3,0,0,1,65.24,742.2V113.65a113.13,113.13,0,0,1,113-113h668a113.13,113.13,0,0,1,113,113V910.83A113.13,113.13,0,0,1,846.24,1023.83Z"/></svg>